<svg width="22" height="22" viewBox="0 0 22 22" fill="none" xmlns="http://www.w3.org/2000/svg">
<path d="M1.13209 12.6298C0.952715 11.5505 0.952715 10.449 1.13209 9.36977C2.23409 9.39577 3.22409 8.86777 3.60909 7.93877C3.99409 7.00877 3.66709 5.93477 2.86909 5.17577C3.5055 4.28505 4.28465 3.50557 5.17509 2.86877C5.93509 3.66677 7.00909 3.99377 7.93909 3.60877C8.86909 3.22377 9.39609 2.23277 9.36909 1.13177C10.449 0.952172 11.5512 0.952172 12.6311 1.13177C12.6041 2.23377 13.1321 3.22377 14.0611 3.60877C14.9911 3.99377 16.0651 3.66677 16.8241 2.86877C17.7148 3.50518 18.4943 4.28433 19.1311 5.17477C18.3331 5.93477 18.0061 7.00877 18.3911 7.93877C18.7761 8.86877 19.7671 9.39577 20.8681 9.36877C21.0477 10.4487 21.0477 11.5508 20.8681 12.6308C19.7661 12.6038 18.7761 13.1318 18.3911 14.0608C18.0061 14.9908 18.3331 16.0648 19.1311 16.8238C18.4947 17.7145 17.7155 18.494 16.8251 19.1308C16.0651 18.3328 14.9911 18.0058 14.0611 18.3908C13.1311 18.7758 12.6041 19.7668 12.6311 20.8678C11.5512 21.0474 10.449 21.0474 9.36909 20.8678C9.39609 19.7658 8.86809 18.7758 7.93909 18.3908C7.00909 18.0058 5.93509 18.3328 5.17609 19.1308C4.28538 18.4944 3.50589 17.7152 2.86909 16.8248C3.66709 16.0648 3.99409 14.9908 3.60909 14.0608C3.22409 13.1308 2.23309 12.6038 1.13209 12.6308V12.6298ZM11.0001 13.9998C11.7957 13.9998 12.5588 13.6837 13.1214 13.1211C13.684 12.5585 14.0001 11.7954 14.0001 10.9998C14.0001 10.2041 13.684 9.44106 13.1214 8.87845C12.5588 8.31584 11.7957 7.99977 11.0001 7.99977C10.2044 7.99977 9.44138 8.31584 8.87877 8.87845C8.31616 9.44106 8.00009 10.2041 8.00009 10.9998C8.00009 11.7954 8.31616 12.5585 8.87877 13.1211C9.44138 13.6837 10.2044 13.9998 11.0001 13.9998Z" fill="black"/>
</svg>
